<?xml version="1.0" encoding="UTF-8"?>
<svg id="Ebene_2" data-name="Ebene 2" xmlns="http://www.w3.org/2000/svg" viewBox="0 0 467.53 453.07">
  <defs>
    <style>
      .cls-1, .cls-2 {
        stroke-width: 0px;
      }

      .cls-2 {
        fill: #fff;
      }
    </style>
  </defs>
  <g id="Ebene_1-2" data-name="Ebene 1">
    <path class="cls-1" d="m133.05,246.71c-20.5-5.51-41-11.02-61.5-16.53.02-.33.04-.67.06-1,30.62-2.53,61.24-5.06,91.86-7.58.06-.4.11-.79.17-1.19-25.18-13.77-50.36-27.53-75.54-41.3.1-.37.21-.75.31-1.12,19.06,1.97,38.12,3.95,58.65,6.08-26.14-35.02-51.54-69.06-76.94-103.1.26-.33.53-.66.79-.99,34.88,19.6,69.76,39.19,106.12,59.62-6.94-17.07-13.32-32.79-19.71-48.5.29-.18.58-.37.86-.55,17,20.08,34,40.16,51,60.24l1.28-.33c1.44-26.14,2.89-52.28,4.33-78.43l1.14-.22c5.22,14.35,10.44,28.69,15.65,43.04.42.06.84.12,1.27.18,15.31-38.34,30.62-76.68,45.93-115.02.36.03.71.06,1.07.09,2.12,37.4,4.25,74.8,6.37,112.2l1.11.64c13.01-17.04,26.02-34.09,39.04-51.13.3.14.61.28.91.43-13.05,32.95-26.11,65.9-39.16,98.85.62.44,1.24.88,1.86,1.32,18.56-12.3,37.13-24.61,55.69-36.91.21.2.42.41.63.61-9.92,14.25-19.84,28.51-30.62,44,51.37-7.49,101.43-14.8,151.49-22.1.14.31.27.63.41.94-41.33,26.26-82.65,52.51-125.32,79.62,17.83,3.04,34.12,5.81,50.41,8.58,0,.25-.01.5-.02.75-21.75,3.28-43.5,6.56-66.63,10.05,19.43,17.25,37.81,33.56,56.19,49.87l-.3.82c-8.91-1.88-17.81-3.75-26.72-5.63-.23.28-.46.56-.69.85,28.31,35.48,56.62,70.97,84.93,106.45-.31.36-.63.73-.94,1.09-47.15-26.84-94.29-53.68-141.44-80.51-.29.27-.58.53-.87.8,7.37,18.77,14.74,37.53,22.11,56.3-.28.17-.55.35-.83.52-17.96-18.36-35.93-36.72-53.89-55.09-.36.16-.72.33-1.07.49,2.83,23.27,5.66,46.55,8.49,69.82-.27.1-.55.2-.82.29-7.66-15.45-15.32-30.9-23.69-47.77-17.38,36.36-34.22,71.58-51.06,106.81-.35-.08-.69-.15-1.04-.23,1.44-40.93,2.87-81.86,4.31-122.79-.41-.17-.83-.35-1.24-.52-13.09,14.73-26.19,29.46-39.28,44.19-.32-.18-.64-.37-.95-.55,11.33-22.92,22.67-45.84,34-68.76-.27-.28-.53-.56-.8-.84-22.28,15.81-44.56,31.63-66.84,47.44-.23-.19-.46-.37-.69-.56,14.49-20.85,28.98-41.71,43.47-62.56-.21-.4-.42-.81-.63-1.21-55.12,11.82-110.23,23.63-165.35,35.45-.11-.3-.23-.61-.34-.91,44.44-24.43,88.88-48.86,133.33-73.29-.09-.41-.19-.82-.28-1.23Zm-10.47-16.7c-.03.52-.07,1.04-.1,1.56,13.55,3.68,27.1,7.36,40.65,11.05.07.41.14.82.2,1.24-30.34,16.7-60.68,33.41-91.03,50.11.17.47.34.94.51,1.41,37.79-8.09,75.59-16.17,114.98-24.6-10.69,15.45-20.47,29.6-30.26,43.75.33.28.67.56,1,.84,14.86-10.52,29.71-21.05,44.57-31.57.29.27.57.53.86.8-7.55,15.38-15.1,30.76-22.65,46.15.35.22.69.44,1.04.66,8.85-9.89,17.7-19.77,26.55-29.66.36.24.72.47,1.08.71-.96,27.82-1.91,55.64-2.87,83.45.52.12,1.04.25,1.55.37,11.51-24.08,23.03-48.17,35.05-73.32,5.7,11.4,10.9,21.79,16.09,32.18.4-.16.8-.31,1.2-.47-1.83-15.46-3.67-30.92-5.5-46.38.41-.26.82-.51,1.23-.77,12.15,12.21,24.29,24.43,36.44,36.64.25-.17.5-.34.74-.5-4.86-12.42-9.71-24.84-14.57-37.25l1.04-.82c32.52,18.49,65.04,36.97,97.56,55.46.29-.4.58-.81.87-1.21-19.46-24.41-38.91-48.81-59.36-74.47,7.16,1.42,12.75,2.52,18.34,3.63.22-.34.43-.67.65-1.01-12.49-11.2-24.98-22.39-38.26-34.29,15.77-2.42,30.32-4.66,44.87-6.89-.03-.44-.07-.88-.1-1.32-10.61-1.84-21.22-3.67-31.82-5.51,0-.41.01-.81.02-1.22,28.34-18.03,56.69-36.07,85.03-54.1-.2-.42-.41-.83-.61-1.25-34.47,5.02-68.95,10.04-104.73,15.26,7.28-10.6,13.71-19.97,20.14-29.33-.31-.32-.63-.63-.94-.95-12.35,8.1-24.71,16.2-37.06,24.3-.46-.36-.91-.71-1.37-1.07,8.89-22.42,17.78-44.84,26.67-67.27-.4-.22-.79-.44-1.19-.66-8.64,11.22-17.27,22.44-25.91,33.66-.46-.11-.93-.23-1.39-.34-1.48-25.45-2.95-50.91-4.43-76.36-.47-.09-.94-.18-1.41-.27-10.52,26.3-21.04,52.6-32.12,80.29-4.14-11.04-7.74-20.63-11.35-30.23-.39.12-.78.25-1.16.37-1.03,17.7-2.06,35.4-3.09,53.1-.41.14-.83.28-1.24.42-11.51-13.57-23.01-27.14-34.52-40.71-.36.23-.73.46-1.09.7,4.13,10.3,8.26,20.61,12.39,30.91-.37.25-.74.5-1.11.75-24.01-13.48-48.02-26.96-72.04-40.43-.26.29-.52.57-.78.86,17.58,23.59,35.16,47.17,52.74,70.76-.29.37-.57.74-.86,1.11-12.72-1.29-25.45-2.58-38.17-3.87-.12.45-.25.89-.37,1.34,17,9.35,34,18.7,51,28.05-.16.37-.33.75-.49,1.12-20.39,1.71-40.78,3.42-61.16,5.13Z"/>
    <path class="cls-2" d="m122.58,230.01c20.39-1.71,40.78-3.42,61.16-5.13.16-.37.33-.75.49-1.12-17-9.35-34-18.7-51-28.05.12-.45.25-.89.37-1.34,12.72,1.29,25.45,2.58,38.17,3.87.29-.37.57-.74.86-1.11-17.58-23.59-35.16-47.17-52.74-70.76.26-.29.52-.57.78-.86,24.01,13.48,48.02,26.96,72.04,40.43.37-.25.74-.5,1.11-.75-4.13-10.3-8.26-20.61-12.39-30.91.36-.23.73-.46,1.09-.7,11.51,13.57,23.01,27.14,34.52,40.71.41-.14.83-.28,1.24-.42,1.03-17.7,2.06-35.4,3.09-53.1.39-.12.78-.25,1.16-.37,3.6,9.6,7.2,19.2,11.35,30.23,11.07-27.69,21.6-53.99,32.12-80.29.47.09.94.18,1.41.27,1.48,25.45,2.95,50.91,4.43,76.36.46.11.93.23,1.39.34,8.64-11.22,17.27-22.44,25.91-33.66.4.22.79.44,1.19.66-8.89,22.42-17.78,44.84-26.67,67.27.46.36.91.71,1.37,1.07,12.35-8.1,24.71-16.2,37.06-24.3.31.32.63.63.94.95-6.43,9.36-12.86,18.73-20.14,29.33,35.78-5.21,70.26-10.23,104.73-15.26.2.42.41.83.61,1.25-28.34,18.03-56.69,36.07-85.03,54.1,0,.41-.01.81-.02,1.22,10.61,1.84,21.22,3.67,31.82,5.51.03.44.07.88.1,1.32-14.55,2.23-29.1,4.47-44.87,6.89,13.27,11.9,25.76,23.09,38.26,34.29-.22.34-.43.67-.65,1.01-5.59-1.11-11.19-2.21-18.34-3.63,20.45,25.65,39.9,50.06,59.36,74.47-.29.4-.58.81-.87,1.21-32.52-18.49-65.04-36.97-97.56-55.46l-1.04.82c4.86,12.42,9.71,24.84,14.57,37.25-.25.17-.5.34-.74.5-12.15-12.21-24.29-24.43-36.44-36.64-.41.26-.82.51-1.23.77,1.83,15.46,3.67,30.92,5.5,46.38-.4.16-.8.31-1.2.47-5.19-10.39-10.39-20.78-16.09-32.18-12.02,25.15-23.54,49.23-35.05,73.32-.52-.12-1.04-.25-1.55-.37.96-27.82,1.91-55.64,2.87-83.45-.36-.24-.72-.47-1.08-.71-8.85,9.89-17.7,19.77-26.55,29.66-.35-.22-.69-.44-1.04-.66,7.55-15.38,15.1-30.76,22.65-46.15-.29-.27-.57-.53-.86-.8-14.86,10.52-29.71,21.05-44.57,31.57-.33-.28-.67-.56-1-.84,9.79-14.15,19.57-28.3,30.26-43.75-39.39,8.43-77.19,16.52-114.98,24.6-.17-.47-.34-.94-.51-1.41,30.34-16.7,60.68-33.41,91.03-50.11-.07-.41-.14-.82-.2-1.24-13.55-3.68-27.1-7.36-40.65-11.05.03-.52.07-1.04.1-1.56Z"/>
  </g>
</svg>